<?xml version="1.0" encoding="utf-8"?>
<!-- Generator: Adobe Illustrator 26.0.1, SVG Export Plug-In . SVG Version: 6.00 Build 0)  -->
<svg version="1.1" id="Layer_1" xmlns="http://www.w3.org/2000/svg" xmlns:xlink="http://www.w3.org/1999/xlink" x="0px" y="0px"
	 viewBox="0 0 612 792" style="enable-background:new 0 0 612 792;" xml:space="preserve">
<path d="M221,592.6c-11.5-3.9-18.5-13.3-26-21.9c-6.1-7-5.5-18.3,0.3-25.6c1.4-1.7,2.9-3.2,4.4-4.8c46.9-46.9,93.8-93.9,140.8-140.8
	c1.1-1.1,2.5-1.8,3.9-2.9c-1.7-1.8-2.8-2.9-3.8-4c-47.3-47.3-94.6-94.6-141.8-141.9c-8.4-8.4-11-18.8-4.7-27.3
	c5.8-7.8,13-14.8,20.7-20.7c7.2-5.6,17-3.9,24.2,2c1.1,0.9,2.1,1.8,3.1,2.8c57.1,57.1,114.3,114.3,171.4,171.4
	c8.6,8.6,10.4,18.5,5,27.8c-1.3,2.3-3.2,4.3-5.1,6.2c-57.1,57.2-114.2,114.3-171.5,171.4c-3.5,3.5-8.4,5.5-12.6,8.2
	C226.7,592.6,223.8,592.6,221,592.6z"/>
</svg>
