<svg width="32" height="32" viewBox="0 0 32 32" fill="none" xmlns="http://www.w3.org/2000/svg">
<path d="M21.0666 2.94658C20.5199 2.39991 19.5732 2.77324 19.5732 3.53324V8.18658C19.5732 10.1332 21.2266 11.7466 23.2399 11.7466C24.5066 11.7599 26.2666 11.7599 27.7732 11.7599C28.5332 11.7599 28.9332 10.8666 28.3999 10.3332C26.4799 8.39991 23.0399 4.91991 21.0666 2.94658Z" fill="white"/>
<path d="M27.3335 13.5867H23.4802C20.3202 13.5867 17.7468 11.0134 17.7468 7.85341V4.00008C17.7468 3.26675 17.1468 2.66675 16.4135 2.66675H10.7602C6.6535 2.66675 3.3335 5.33342 3.3335 10.0934V21.9067C3.3335 26.6667 6.6535 29.3334 10.7602 29.3334H21.2402C25.3468 29.3334 28.6668 26.6667 28.6668 21.9067V14.9201C28.6668 14.1867 28.0668 13.5867 27.3335 13.5867ZM15.3335 23.6667H10.0002C9.4535 23.6667 9.00016 23.2134 9.00016 22.6667C9.00016 22.1201 9.4535 21.6667 10.0002 21.6667H15.3335C15.8802 21.6667 16.3335 22.1201 16.3335 22.6667C16.3335 23.2134 15.8802 23.6667 15.3335 23.6667ZM18.0002 18.3334H10.0002C9.4535 18.3334 9.00016 17.8801 9.00016 17.3334C9.00016 16.7867 9.4535 16.3334 10.0002 16.3334H18.0002C18.5468 16.3334 19.0002 16.7867 19.0002 17.3334C19.0002 17.8801 18.5468 18.3334 18.0002 18.3334Z" fill="white"/>
</svg>
