<svg width="32" height="32" viewBox="0 0 32 32" fill="none" xmlns="http://www.w3.org/2000/svg">
<path d="M21.5865 2.66675H10.4132C5.55984 2.66675 2.6665 5.56008 2.6665 10.4134V21.5734C2.6665 26.4401 5.55984 29.3334 10.4132 29.3334H21.5732C26.4265 29.3334 29.3198 26.4401 29.3198 21.5868V10.4134C29.3332 5.56008 26.4398 2.66675 21.5865 2.66675ZM14.5998 23.3467C14.2132 23.7334 13.4798 24.1067 12.9465 24.1867L9.6665 24.6534C9.5465 24.6667 9.4265 24.6801 9.3065 24.6801C8.75984 24.6801 8.25317 24.4934 7.89317 24.1334C7.45317 23.6934 7.2665 23.0534 7.37317 22.3467L7.83984 19.0667C7.91984 18.5201 8.27984 17.8001 8.67984 17.4134L14.6265 11.4667C14.7332 11.7467 14.8398 12.0267 14.9865 12.3467C15.1198 12.6267 15.2665 12.9201 15.4265 13.1867C15.5598 13.4134 15.7065 13.6267 15.8265 13.7867C15.9732 14.0134 16.1465 14.2267 16.2532 14.3467C16.3198 14.4401 16.3732 14.5067 16.3998 14.5334C16.7332 14.9334 17.1198 15.3067 17.4532 15.5867C17.5465 15.6801 17.5998 15.7334 17.6265 15.7467C17.8265 15.9067 18.0265 16.0667 18.1998 16.1867C18.4132 16.3467 18.6265 16.4934 18.8532 16.6134C19.1198 16.7734 19.4132 16.9201 19.7065 17.0667C20.0132 17.2001 20.2932 17.3201 20.5732 17.4134L14.5998 23.3467ZM23.1598 14.7867L21.9332 16.0267C21.8532 16.1067 21.7465 16.1467 21.6398 16.1467C21.5998 16.1467 21.5465 16.1467 21.5198 16.1334C18.8132 15.3601 16.6532 13.2001 15.8798 10.4934C15.8398 10.3467 15.8798 10.1867 15.9865 10.0934L17.2265 8.85341C19.2532 6.82675 21.1865 6.86675 23.1732 8.85341C24.1865 9.86675 24.6798 10.8401 24.6798 11.8534C24.6665 12.8134 24.1732 13.7734 23.1598 14.7867Z" fill="white"/>
</svg>
