<svg width="228" height="66" viewBox="0 0 228 66" fill="none" xmlns="http://www.w3.org/2000/svg">
<g filter="url(#filter0_d_6_4149)">
<rect x="4" width="55" height="58" rx="8" fill="#0A5EB0" shape-rendering="crispEdges"/>
<path d="M14 14C14 11.7909 15.7909 10 18 10H45C47.2091 10 49 11.7909 49 14V40H36.9392C35.3159 40 34 38.6841 34 37.0608C34 35.8238 34.7871 34.742 35.9116 34.2267C39.3415 32.655 40.5981 30.8162 42 27C42.7983 24.2108 43.1306 22.6417 43.1667 20.6825C43.2051 18.5996 41.3957 17 39.3124 17H37L36.865 16.91C35.6403 16.0936 34 16.9715 34 18.4433C34 19.7011 35.2323 20.5892 36.4255 20.1915L37 20L38.3041 19.674C39.6296 19.3426 40.8668 20.407 40.6325 21.753C40.2339 24.0437 39.4501 27.2092 38 29C35.8974 31.5967 34 33 32 33C30 33 28.1026 31.5967 26 29C24.5499 27.2092 23.7661 24.0437 23.3675 21.753C23.1332 20.407 24.3704 19.3426 25.6959 19.674L27 20L27.5745 20.1915C28.7677 20.5892 30 19.7011 30 18.4433C30 16.9715 28.3597 16.0936 27.135 16.91L27 17H24.7218C22.6243 17 20.8118 18.6211 20.8605 20.718C20.9063 22.6887 21.2325 24.2474 22 27C23.4596 30.8175 24.8348 32.6532 28.1147 34.2085C29.226 34.7355 30 35.814 30 37.044C30 38.6765 28.6765 40 27.044 40H19C17.8954 40 17 40.8954 17 42C17 43.1046 17.8954 44 19 44H45C47.2091 44 49 45.7909 49 48H18C15.7909 48 14 46.2091 14 44V14Z" fill="white"/>
</g>
<path d="M98.676 34.66C98.676 35.4067 98.844 36.0413 99.18 36.564C99.5347 37.068 100.057 37.32 100.748 37.32C101.028 37.32 101.168 37.46 101.168 37.74V38.58C101.168 38.86 101.028 39 100.748 39H93.832C93.552 39 93.412 38.86 93.412 38.58V37.74C93.412 37.46 93.552 37.32 93.832 37.32C94.5227 37.32 95.036 37.068 95.372 36.564C95.708 36.0413 95.876 35.4067 95.876 34.66V24.048L89.268 37.432C89.1747 37.6373 89.016 37.74 88.792 37.74H86.216C85.992 37.74 85.824 37.6373 85.712 37.432L79.132 24.048V34.66C79.132 35.4067 79.3 36.0413 79.636 36.564C79.972 37.068 80.4853 37.32 81.176 37.32C81.456 37.32 81.596 37.46 81.596 37.74V38.58C81.596 38.86 81.456 39 81.176 39H74.26C73.98 39 73.84 38.86 73.84 38.58V37.74C73.84 37.46 73.98 37.32 74.26 37.32C74.9507 37.32 75.464 37.068 75.8 36.564C76.1547 36.0413 76.332 35.4067 76.332 34.66V20.1C76.0707 19.9507 75.7907 19.848 75.492 19.792C75.212 19.7173 74.9133 19.68 74.596 19.68C74.316 19.68 74.176 19.54 74.176 19.26V18.42C74.176 18.14 74.316 18 74.596 18H79.86C80.1213 18 80.2893 18.084 80.364 18.252L87.504 32.7L94.644 18.252C94.7187 18.084 94.8867 18 95.148 18H100.412C100.692 18 100.832 18.14 100.832 18.42V19.26C100.832 19.54 100.692 19.68 100.412 19.68C100.113 19.68 99.8147 19.7173 99.516 19.792C99.2173 19.848 98.9373 19.9507 98.676 20.1V34.66ZM116.213 25C116.493 25 116.633 25.14 116.633 25.42V26.26C116.633 26.54 116.493 26.68 116.213 26.68H115.821C115.523 26.68 115.261 26.8013 115.037 27.044C114.813 27.268 114.533 27.7253 114.197 28.416L106.077 44.768C105.965 45.0107 105.779 45.076 105.517 44.964L104.089 44.236C103.828 44.124 103.753 43.9373 103.865 43.676L107.001 36.956L102.885 28.444C102.549 27.7533 102.288 27.2867 102.101 27.044C101.915 26.8013 101.635 26.68 101.261 26.68H101.205C100.925 26.68 100.785 26.54 100.785 26.26V25.42C100.785 25.14 100.925 25 101.205 25H107.673C107.953 25 108.093 25.14 108.093 25.42V26.26C108.093 26.54 107.953 26.68 107.673 26.68H107.617C107.02 26.68 106.721 26.9227 106.721 27.408C106.721 27.6507 106.787 27.94 106.917 28.276C107.048 28.5933 107.197 28.9387 107.365 29.312L109.241 33.4L111.257 29.256C111.463 28.864 111.631 28.5 111.761 28.164C111.892 27.8093 111.957 27.5107 111.957 27.268C111.957 26.876 111.743 26.68 111.313 26.68H110.809C110.529 26.68 110.389 26.54 110.389 26.26V25.42C110.389 25.14 110.529 25 110.809 25H116.213ZM133.689 18C135.929 18 137.889 18.42 139.569 19.26C141.267 20.1 142.583 21.304 143.517 22.872C144.469 24.44 144.945 26.3067 144.945 28.472C144.945 30.6933 144.515 32.5973 143.657 34.184C142.798 35.752 141.585 36.9467 140.017 37.768C138.449 38.5893 136.601 39 134.473 39H125.065C124.785 39 124.645 38.86 124.645 38.58V37.74C124.645 37.46 124.785 37.32 125.065 37.32H125.261C125.877 37.32 126.343 37.0867 126.661 36.62C126.978 36.1533 127.137 35.5 127.137 34.66V22.34C127.137 20.5667 126.455 19.68 125.093 19.68H125.065C124.785 19.68 124.645 19.54 124.645 19.26V18.42C124.645 18.14 124.785 18 125.065 18H133.689ZM131.589 34.8C131.589 35.528 131.71 36.1067 131.953 36.536C132.195 36.9653 132.765 37.18 133.661 37.18C135.882 37.18 137.609 36.4893 138.841 35.108C140.073 33.7267 140.689 31.5147 140.689 28.472C140.689 25.7653 140.054 23.628 138.785 22.06C137.515 20.4733 135.555 19.68 132.905 19.68H131.589V34.8ZM153.657 24.636C154.721 24.636 155.701 24.8507 156.597 25.28C157.512 25.6907 158.296 26.26 158.949 26.988C159.602 27.6973 160.106 28.5 160.461 29.396C160.834 30.2733 161.021 31.188 161.021 32.14C161.021 33.5213 160.694 34.7627 160.041 35.864C159.388 36.9467 158.529 37.8053 157.465 38.44C156.401 39.056 155.244 39.364 153.993 39.364C152.929 39.364 151.949 39.1587 151.053 38.748C150.157 38.3373 149.373 37.7867 148.701 37.096C148.048 36.3867 147.534 35.584 147.161 34.688C146.806 33.7733 146.629 32.8213 146.629 31.832C146.629 30.4693 146.946 29.2467 147.581 28.164C148.216 27.0813 149.065 26.2227 150.129 25.588C151.193 24.9533 152.369 24.636 153.657 24.636ZM154.861 37.096C155.216 37.096 155.608 37.0027 156.037 36.816C156.466 36.6293 156.84 36.3027 157.157 35.836C157.493 35.3693 157.661 34.7253 157.661 33.904C157.661 33.2507 157.53 32.532 157.269 31.748C157.026 30.9453 156.681 30.18 156.233 29.452C155.804 28.7053 155.29 28.0987 154.693 27.632C154.114 27.1467 153.48 26.904 152.789 26.904C152.024 26.904 151.361 27.1933 150.801 27.772C150.241 28.332 149.961 29.1067 149.961 30.096C149.961 30.7307 150.082 31.4493 150.325 32.252C150.586 33.0547 150.932 33.8293 151.361 34.576C151.809 35.304 152.332 35.9107 152.929 36.396C153.526 36.8627 154.17 37.096 154.861 37.096ZM175.083 35.22C175.233 35.332 175.307 35.4533 175.307 35.584C175.307 35.6213 175.289 35.696 175.251 35.808C174.71 37.0027 173.907 37.8987 172.843 38.496C171.798 39.0747 170.65 39.364 169.399 39.364C168.354 39.364 167.402 39.14 166.543 38.692C165.685 38.2253 164.957 37.6093 164.359 36.844C163.762 36.0787 163.323 35.22 163.043 34.268C162.763 33.316 162.661 32.336 162.735 31.328C162.866 29.7787 163.295 28.5093 164.023 27.52C164.751 26.5307 165.629 25.8027 166.655 25.336C167.701 24.8693 168.746 24.636 169.791 24.636C171.023 24.636 172.022 24.8227 172.787 25.196C173.553 25.5693 174.141 26.0547 174.551 26.652C174.962 27.2493 175.242 27.8747 175.391 28.528C175.41 28.6027 175.419 28.668 175.419 28.724C175.419 28.8733 175.307 28.976 175.083 29.032L171.863 29.872C171.751 29.9093 171.667 29.928 171.611 29.928C171.481 29.928 171.415 29.8627 171.415 29.732C171.415 29.6573 171.415 29.5827 171.415 29.508C171.434 29.4333 171.443 29.3307 171.443 29.2C171.443 28.6027 171.257 28.0707 170.883 27.604C170.51 27.1373 169.931 26.904 169.147 26.904C168.438 26.904 167.878 27.128 167.467 27.576C167.057 28.024 166.758 28.6027 166.571 29.312C166.403 30.0027 166.319 30.7307 166.319 31.496C166.319 32.4107 166.441 33.2787 166.683 34.1C166.926 34.9213 167.318 35.5933 167.859 36.116C168.419 36.62 169.175 36.872 170.127 36.872C170.874 36.872 171.565 36.6947 172.199 36.34C172.834 35.9667 173.357 35.4627 173.767 34.828C173.842 34.6973 173.954 34.632 174.103 34.632C174.197 34.632 174.281 34.66 174.355 34.716L175.083 35.22ZM187.093 36.984C187.149 37.0587 187.177 37.1427 187.177 37.236C187.177 37.348 187.102 37.4507 186.953 37.544L186.113 38.076C185.609 38.3933 185.002 38.692 184.293 38.972C183.583 39.2333 182.874 39.364 182.165 39.364C181.605 39.364 181.073 39.2333 180.569 38.972C180.083 38.7107 179.691 38.272 179.393 37.656C179.094 37.0213 178.945 36.1533 178.945 35.052V29.872C178.945 29.368 178.917 28.8733 178.861 28.388C178.805 27.884 178.627 27.4733 178.329 27.156C178.049 26.8387 177.573 26.68 176.901 26.68C176.621 26.68 176.481 26.54 176.481 26.26V25.42C176.481 25.14 176.621 25 176.901 25H178.945V23.124C178.945 22.8813 179.029 22.7133 179.197 22.62C179.607 22.396 180.149 22.088 180.821 21.696C181.493 21.2853 182.09 20.8187 182.613 20.296C182.65 20.2587 182.697 20.24 182.753 20.24H182.809C182.846 20.24 182.865 20.268 182.865 20.324V25H186.617C186.897 25 187.037 25.14 187.037 25.42V26.624C187.037 26.904 186.897 27.044 186.617 27.044H182.865V35.052C182.865 35.78 182.977 36.284 183.201 36.564C183.425 36.8253 183.705 36.956 184.041 36.956C184.358 36.956 184.694 36.872 185.049 36.704C185.403 36.5173 185.73 36.3307 186.029 36.144C186.159 36.0693 186.262 36.032 186.337 36.032C186.449 36.032 186.551 36.1067 186.645 36.256L187.093 36.984ZM195.11 24.636C196.174 24.636 197.154 24.8507 198.05 25.28C198.965 25.6907 199.749 26.26 200.402 26.988C201.056 27.6973 201.56 28.5 201.914 29.396C202.288 30.2733 202.474 31.188 202.474 32.14C202.474 33.5213 202.148 34.7627 201.494 35.864C200.841 36.9467 199.982 37.8053 198.918 38.44C197.854 39.056 196.697 39.364 195.446 39.364C194.382 39.364 193.402 39.1587 192.506 38.748C191.61 38.3373 190.826 37.7867 190.154 37.096C189.501 36.3867 188.988 35.584 188.614 34.688C188.26 33.7733 188.082 32.8213 188.082 31.832C188.082 30.4693 188.4 29.2467 189.034 28.164C189.669 27.0813 190.518 26.2227 191.582 25.588C192.646 24.9533 193.822 24.636 195.11 24.636ZM196.314 37.096C196.669 37.096 197.061 37.0027 197.49 36.816C197.92 36.6293 198.293 36.3027 198.61 35.836C198.946 35.3693 199.114 34.7253 199.114 33.904C199.114 33.2507 198.984 32.532 198.722 31.748C198.48 30.9453 198.134 30.18 197.686 29.452C197.257 28.7053 196.744 28.0987 196.146 27.632C195.568 27.1467 194.933 26.904 194.242 26.904C193.477 26.904 192.814 27.1933 192.254 27.772C191.694 28.332 191.414 29.1067 191.414 30.096C191.414 30.7307 191.536 31.4493 191.778 32.252C192.04 33.0547 192.385 33.8293 192.814 34.576C193.262 35.304 193.785 35.9107 194.382 36.396C194.98 36.8627 195.624 37.096 196.314 37.096ZM209.515 27.94C210.019 26.8573 210.719 26.036 211.615 25.476C212.511 24.916 213.454 24.636 214.443 24.636C215.32 24.636 216.067 24.8787 216.683 25.364C217.299 25.8493 217.607 26.568 217.607 27.52C217.607 27.9307 217.57 28.2947 217.495 28.612C217.42 28.9293 217.215 29.1627 216.879 29.312L214.247 30.376C214.135 30.4133 214.051 30.432 213.995 30.432C213.827 30.432 213.743 30.348 213.743 30.18C213.743 30.124 213.762 30.04 213.799 29.928C213.911 29.6667 213.976 29.4147 213.995 29.172C214.032 28.9293 214.051 28.7147 214.051 28.528C214.051 28.024 213.92 27.66 213.659 27.436C213.416 27.1933 213.108 27.072 212.735 27.072C212.306 27.072 211.904 27.2027 211.531 27.464C211.158 27.7253 210.831 28.0427 210.551 28.416C210.271 28.7893 210.066 29.1533 209.935 29.508V34.66C209.935 35.4067 210.103 36.0413 210.439 36.564C210.775 37.068 211.288 37.32 211.979 37.32H212.035C212.315 37.32 212.455 37.46 212.455 37.74V38.58C212.455 38.86 212.315 39 212.035 39H203.887C203.607 39 203.467 38.86 203.467 38.58V37.74C203.467 37.46 203.607 37.32 203.887 37.32H203.943C204.634 37.32 205.147 37.068 205.483 36.564C205.819 36.0413 205.987 35.4067 205.987 34.66V31.132C205.987 30.628 205.95 30.1427 205.875 29.676C205.819 29.2093 205.679 28.8173 205.455 28.5C205.231 28.164 204.858 27.968 204.335 27.912C204.111 27.8933 203.999 27.772 203.999 27.548V26.596C203.999 26.4093 204.139 26.288 204.419 26.232C205.744 26.0267 206.902 25.7 207.891 25.252C208.899 24.804 209.58 24.4493 209.935 24.188C209.991 24.1507 210.038 24.132 210.075 24.132H210.131C210.168 24.132 210.187 24.1507 210.187 24.188C210.187 24.2067 210.159 24.3467 210.103 24.608C210.066 24.8693 210.01 25.2053 209.935 25.616C209.879 26.008 209.804 26.4187 209.711 26.848C209.636 27.2587 209.571 27.6227 209.515 27.94Z" fill="#0A5EB0"/>
<defs>
<filter id="filter0_d_6_4149" x="0" y="0" width="63" height="66" filterUnits="userSpaceOnUse" color-interpolation-filters="sRGB">
<feFlood flood-opacity="0" result="BackgroundImageFix"/>
<feColorMatrix in="SourceAlpha" type="matrix" values="0 0 0 0 0 0 0 0 0 0 0 0 0 0 0 0 0 0 127 0" result="hardAlpha"/>
<feOffset dy="4"/>
<feGaussianBlur stdDeviation="2"/>
<feComposite in2="hardAlpha" operator="out"/>
<feColorMatrix type="matrix" values="0 0 0 0 0 0 0 0 0 0 0 0 0 0 0 0 0 0 0.25 0"/>
<feBlend mode="normal" in2="BackgroundImageFix" result="effect1_dropShadow_6_4149"/>
<feBlend mode="normal" in="SourceGraphic" in2="effect1_dropShadow_6_4149" result="shape"/>
</filter>
</defs>
</svg>
