<svg width="32" height="32" viewBox="0 0 32 32" fill="none" xmlns="http://www.w3.org/2000/svg">
<path d="M17.7331 10.8133L19.4931 14.3333C19.7331 14.8133 20.3731 15.2933 20.9065 15.3733L24.0931 15.9067C26.1331 16.2533 26.6131 17.72 25.1465 19.1867L22.6665 21.68C22.2531 22.0933 22.0131 22.9067 22.1465 23.4933L22.8531 26.5733C23.4131 29 22.1198 29.9467 19.9731 28.68L16.9865 26.9067C16.4398 26.5867 15.5598 26.5867 15.0131 26.9067L12.0131 28.6667C9.86647 29.9333 8.57314 28.9867 9.13314 26.56L9.8398 23.48C9.97314 22.9067 9.73313 22.0933 9.3198 21.6667L6.85314 19.2C5.38647 17.7333 5.86647 16.2533 7.90647 15.92L11.0931 15.3867C11.6265 15.2933 12.2665 14.8267 12.5065 14.3467L14.2665 10.8267C15.2131 8.90668 16.7865 8.90668 17.7331 10.8133Z" fill="white"/>
<path d="M8 13.0001C7.45333 13.0001 7 12.5467 7 12.0001V2.66675C7 2.12008 7.45333 1.66675 8 1.66675C8.54667 1.66675 9 2.12008 9 2.66675V12.0001C9 12.5467 8.54667 13.0001 8 13.0001Z" fill="white"/>
<path d="M24 13.0001C23.4533 13.0001 23 12.5467 23 12.0001V2.66675C23 2.12008 23.4533 1.66675 24 1.66675C24.5467 1.66675 25 2.12008 25 2.66675V12.0001C25 12.5467 24.5467 13.0001 24 13.0001Z" fill="white"/>
<path d="M16 6.33342C15.4533 6.33342 15 5.88008 15 5.33341V2.66675C15 2.12008 15.4533 1.66675 16 1.66675C16.5467 1.66675 17 2.12008 17 2.66675V5.33341C17 5.88008 16.5467 6.33342 16 6.33342Z" fill="white"/>
</svg>
