<svg width="32" height="32" viewBox="0 0 32 32" fill="none" xmlns="http://www.w3.org/2000/svg">
<path d="M21.0398 2.66675H10.9598C5.91984 2.66675 4.6665 4.01341 4.6665 9.38675V24.4001C4.6665 27.9467 6.61317 28.7867 8.97317 26.2534L8.9865 26.2401C10.0798 25.0801 11.7465 25.1734 12.6932 26.4401L14.0398 28.2401C15.1198 29.6667 16.8665 29.6667 17.9465 28.2401L19.2932 26.4401C20.2532 25.1601 21.9198 25.0667 23.0132 26.2401C25.3865 28.7734 27.3198 27.9334 27.3198 24.3867V9.38675C27.3332 4.01341 26.0798 2.66675 21.0398 2.66675ZM10.3732 16.0001C9.63984 16.0001 9.03984 15.4001 9.03984 14.6667C9.03984 13.9334 9.63984 13.3334 10.3732 13.3334C11.1065 13.3334 11.7065 13.9334 11.7065 14.6667C11.7065 15.4001 11.1065 16.0001 10.3732 16.0001ZM10.3732 10.6667C9.63984 10.6667 9.03984 10.0667 9.03984 9.33342C9.03984 8.60008 9.63984 8.00008 10.3732 8.00008C11.1065 8.00008 11.7065 8.60008 11.7065 9.33342C11.7065 10.0667 11.1065 10.6667 10.3732 10.6667ZM21.6398 15.6667H14.3065C13.7598 15.6667 13.3065 15.2134 13.3065 14.6667C13.3065 14.1201 13.7598 13.6667 14.3065 13.6667H21.6398C22.1865 13.6667 22.6398 14.1201 22.6398 14.6667C22.6398 15.2134 22.1865 15.6667 21.6398 15.6667ZM21.6398 10.3334H14.3065C13.7598 10.3334 13.3065 9.88008 13.3065 9.33342C13.3065 8.78675 13.7598 8.33342 14.3065 8.33342H21.6398C22.1865 8.33342 22.6398 8.78675 22.6398 9.33342C22.6398 9.88008 22.1865 10.3334 21.6398 10.3334Z" fill="white"/>
</svg>
